# xmcd
#
# Track frame offsets: 
#        150
#        11571
#        15037
#        46941
#        79411
#        97224
#        120012
#        217380
#
# Disc length: 4010 seconds
#
# Revision: 0
# Processed by: cddbd v1.5.2PL0 Copyright (c) Steve Scherf et al.
# Submitted via: ExactAudioCopy v1.1
#
DISCID=5d0fa808
DTITLE=Furtwängler, VPO - Concert in Stockholm 25 September 1950 [WFHC
DTITLE=009-10 CD 1]
DYEAR=1950
DGENRE=Classical
TTITLE0=Swedish and Austrian National Anthems
TTITLE1=Radio Announcement
TTITLE2=Haydn - Symphony No 94 - 1st movt
TTITLE3=2nd movt
TTITLE4=3rd movt
TTITLE5=4th movt
TTITLE6=Sibelius - En Saga
TTITLE7=Strauss - Don Juan op 90
EXTD=
EXTT0=
EXTT1=
EXTT2=
EXTT3=
EXTT4=
EXTT5=
EXTT6=
EXTT7=
PLAYORDER=
